<svg width="174" height="140" viewBox="0 0 174 140" fill="none" xmlns="http://www.w3.org/2000/svg">
<path d="M83 27C88.5228 27 93 24.9853 93 22.5C93 20.0147 88.5228 18 83 18C77.4772 18 73 20.0147 73 22.5C73 24.9853 77.4772 27 83 27Z" stroke="#EDBF6A" stroke-width="2" stroke-linecap="round" stroke-linejoin="round"/>
<path d="M73 22.5V27.5C73 29.9875 77.475 32 83 32C88.525 32 93 29.9875 93 27.5V22.5" stroke="#EDBF6A" stroke-width="2" stroke-linecap="round" stroke-linejoin="round"/>
<path d="M79 26.625V31.625" stroke="#EDBF6A" stroke-width="2" stroke-linecap="round" stroke-linejoin="round"/>
<path d="M93 24.0875C97.5625 24.5125 101 26.325 101 28.5C101 30.9875 96.525 33 91 33C88.55 33 86.3 32.6 84.5625 31.95" stroke="#EDBF6A" stroke-width="2" stroke-linecap="round" stroke-linejoin="round"/>
<path d="M81 31.9125V33.5C81 35.9875 85.475 38 91 38C96.525 38 101 35.9875 101 33.5V28.5" stroke="#EDBF6A" stroke-width="2" stroke-linecap="round" stroke-linejoin="round"/>
<path d="M95 32.625V37.625" stroke="#EDBF6A" stroke-width="2" stroke-linecap="round" stroke-linejoin="round"/>
<path d="M87 26.625V37.625" stroke="#EDBF6A" stroke-width="2" stroke-linecap="round" stroke-linejoin="round"/>
<path d="M45.587 78.704L47.099 83H49.331L43.019 65.84H40.619L34.283 83H36.515L38.027 78.704H45.587ZM38.747 76.784L41.795 67.832H41.843L44.891 76.784H38.747ZM55.7105 67.52V65.84C55.2785 65.744 54.7745 65.696 54.3425 65.696C52.7105 65.696 51.4625 66.344 51.4625 68.84V70.76H49.7585V72.44H51.4625V83H53.3825V72.44H55.7105V70.76H53.3825V69.032C53.3825 67.64 54.0785 67.4 55.7105 67.52ZM62.5073 67.52V65.84C62.0753 65.744 61.5713 65.696 61.1393 65.696C59.5073 65.696 58.2593 66.344 58.2593 68.84V70.76H56.5553V72.44H58.2593V83H60.1793V72.44H62.5073V70.76H60.1793V69.032C60.1793 67.64 60.8753 67.4 62.5073 67.52ZM69.331 83.336C65.587 83.336 63.331 80.696 63.331 76.88C63.331 73.064 65.587 70.424 69.331 70.424C73.051 70.424 75.307 73.064 75.307 76.88C75.307 80.696 73.051 83.336 69.331 83.336ZM69.331 81.656C72.067 81.656 73.387 79.496 73.387 76.88C73.387 74.264 72.067 72.104 69.331 72.104C66.571 72.104 65.251 74.264 65.251 76.88C65.251 79.496 66.571 81.656 69.331 81.656ZM82.5978 70.424C80.8458 70.424 79.8618 71.576 79.2138 73.184H79.1658V70.76H77.2458V83H79.1658V76.472C79.1658 73.856 81.0138 71.984 83.6778 72.416H83.7258V70.496C83.3898 70.448 83.0538 70.424 82.5978 70.424ZM93.7156 65.84V72.344H93.6676C92.9476 71.288 91.7956 70.424 89.8276 70.424C86.7556 70.424 84.3076 72.848 84.3076 76.88C84.3076 80.912 86.7556 83.336 89.8276 83.336C91.7956 83.336 92.9476 82.424 93.6676 81.488H93.7156V83H95.6356V65.84H93.7156ZM90.0196 81.656C87.4996 81.656 86.2276 79.28 86.2276 76.88C86.2276 74.48 87.4996 72.104 90.0196 72.104C92.2996 72.104 93.7156 74 93.7156 76.88C93.7156 79.76 92.2996 81.656 90.0196 81.656ZM105.757 73.88C105.757 75.104 104.821 75.368 102.757 75.752C99.5892 76.352 97.5252 77.072 97.5252 79.856C97.5252 81.92 99.0852 83.336 101.557 83.336C103.573 83.336 104.941 82.616 105.709 81.464H105.757C106.093 82.808 106.789 83.12 107.941 83.12C108.301 83.12 108.565 83.096 109.069 82.928V81.584C107.845 81.728 107.677 81.2 107.677 80.24V74.288C107.677 71.336 105.589 70.424 103.261 70.424C99.7092 70.424 98.2452 72.2 98.1252 74.552H100.045C100.165 72.776 100.933 72.104 103.261 72.104C105.229 72.104 105.757 72.92 105.757 73.88ZM101.749 81.656C100.165 81.656 99.4452 80.96 99.4452 79.76C99.4452 78.296 100.549 77.696 102.925 77.192C104.221 76.928 105.397 76.592 105.757 76.232V78.272C105.757 80.624 104.029 81.656 101.749 81.656ZM116.312 70.424C114.344 70.424 113.192 71.288 112.472 72.344H112.424V65.84H110.504V83H112.424V81.488H112.472C113.192 82.424 114.344 83.336 116.312 83.336C119.384 83.336 121.832 80.912 121.832 76.88C121.832 72.848 119.384 70.424 116.312 70.424ZM116.12 81.656C113.84 81.656 112.424 79.76 112.424 76.88C112.424 74 113.84 72.104 116.12 72.104C118.64 72.104 119.912 74.48 119.912 76.88C119.912 79.28 118.64 81.656 116.12 81.656ZM123.841 65.84V83H125.761V65.84H123.841ZM133.688 81.656C131.024 81.656 129.704 79.592 129.704 77.384H139.376C139.376 73.04 137.504 70.424 133.664 70.424C130.088 70.424 127.784 72.8 127.784 76.88C127.784 80.72 130.04 83.336 133.76 83.336C136.808 83.336 138.56 81.512 139.184 79.232H137.264C137.048 80.072 136.136 81.656 133.688 81.656ZM133.664 72.104C135.968 72.104 137.456 73.736 137.456 75.704H129.704C129.704 73.736 131.36 72.104 133.664 72.104ZM38.6275 119H40.7875V111.824H45.4435C48.5875 111.824 51.0115 110.432 51.0115 106.832C51.0115 103.232 48.5875 101.84 45.4435 101.84H38.6275V119ZM40.7875 103.76H45.6835C47.8195 103.76 48.8515 104.744 48.8515 106.832C48.8515 108.92 47.8195 109.904 45.6835 109.904H40.7875V103.76ZM59.8197 109.88C59.8197 111.104 58.8837 111.368 56.8197 111.752C53.6517 112.352 51.5877 113.072 51.5877 115.856C51.5877 117.92 53.1477 119.336 55.6197 119.336C57.6357 119.336 59.0037 118.616 59.7717 117.464H59.8197C60.1557 118.808 60.8517 119.12 62.0037 119.12C62.3637 119.12 62.6277 119.096 63.1317 118.928V117.584C61.9077 117.728 61.7397 117.2 61.7397 116.24V110.288C61.7397 107.336 59.6517 106.424 57.3237 106.424C53.7717 106.424 52.3077 108.2 52.1877 110.552H54.1077C54.2277 108.776 54.9957 108.104 57.3237 108.104C59.2917 108.104 59.8197 108.92 59.8197 109.88ZM55.8117 117.656C54.2277 117.656 53.5077 116.96 53.5077 115.76C53.5077 114.296 54.6117 113.696 56.9877 113.192C58.2837 112.928 59.4597 112.592 59.8197 112.232V114.272C59.8197 116.624 58.0917 117.656 55.8117 117.656ZM73.2541 111.176H75.1741C74.8861 108.44 72.8221 106.424 69.7981 106.424C66.2221 106.424 63.8701 109.04 63.8701 112.88C63.8701 116.72 66.2221 119.336 69.7981 119.336C72.8221 119.336 75.0061 117.272 75.1741 114.488H73.2541C73.1581 115.952 72.2701 117.656 69.7981 117.656C66.8941 117.656 65.7901 115.184 65.7901 112.88C65.7901 110.576 66.8941 108.104 69.7981 108.104C72.2461 108.104 73.1581 109.832 73.2541 111.176ZM77.0114 101.84V119H78.9314V114.176L80.8274 112.424L85.1714 119H87.4514L82.1714 111.296L86.9474 106.76H84.5474L78.9314 112.016V101.84H77.0114ZM96.0072 109.88C96.0072 111.104 95.0712 111.368 93.0072 111.752C89.8392 112.352 87.7752 113.072 87.7752 115.856C87.7752 117.92 89.3352 119.336 91.8072 119.336C93.8232 119.336 95.1912 118.616 95.9592 117.464H96.0072C96.3432 118.808 97.0392 119.12 98.1912 119.12C98.5512 119.12 98.8152 119.096 99.3192 118.928V117.584C98.0952 117.728 97.9272 117.2 97.9272 116.24V110.288C97.9272 107.336 95.8392 106.424 93.5112 106.424C89.9592 106.424 88.4952 108.2 88.3752 110.552H90.2952C90.4152 108.776 91.1832 108.104 93.5112 108.104C95.4792 108.104 96.0072 108.92 96.0072 109.88ZM91.9992 117.656C90.4152 117.656 89.6952 116.96 89.6952 115.76C89.6952 114.296 90.7992 113.696 93.1752 113.192C94.4712 112.928 95.6472 112.592 96.0072 112.232V114.272C96.0072 116.624 94.2792 117.656 91.9992 117.656ZM109.466 106.76V108.272H109.418C108.698 107.336 107.546 106.424 105.53 106.424C102.506 106.424 100.058 108.368 100.058 112.4C100.058 116.432 102.506 118.376 105.53 118.376C107.546 118.376 108.698 117.512 109.418 116.456H109.466V118.304C109.466 120.584 108.146 121.568 105.866 121.568C103.586 121.568 102.578 120.632 102.338 119.384H100.418C100.61 121.472 102.602 123.248 105.962 123.248C109.322 123.248 111.386 121.592 111.386 118.328V106.76H109.466ZM105.77 116.696C103.25 116.696 101.978 114.8 101.978 112.4C101.978 110 103.25 108.104 105.77 108.104C108.05 108.104 109.466 109.52 109.466 112.4C109.466 115.28 108.05 116.696 105.77 116.696ZM119.227 117.656C116.563 117.656 115.243 115.592 115.243 113.384H124.915C124.915 109.04 123.043 106.424 119.203 106.424C115.627 106.424 113.323 108.8 113.323 112.88C113.323 116.72 115.579 119.336 119.299 119.336C122.347 119.336 124.099 117.512 124.723 115.232H122.803C122.587 116.072 121.675 117.656 119.227 117.656ZM119.203 108.104C121.507 108.104 122.995 109.736 122.995 111.704H115.243C115.243 109.736 116.899 108.104 119.203 108.104ZM131.784 111.728C130.08 111.32 128.424 111.2 128.424 109.76C128.424 108.8 129.36 108.104 131.088 108.104C133.392 108.104 133.848 109.328 134.04 110.264H135.96C135.768 108.152 134.136 106.424 131.088 106.424C128.208 106.424 126.504 107.984 126.504 109.904C126.504 112.784 129.288 113 131.16 113.456C132.912 113.888 134.52 113.984 134.52 115.76C134.52 116.576 133.704 117.656 131.616 117.656C128.544 117.656 128.064 116.288 127.944 114.92H126.024C126.144 117.56 127.872 119.336 131.616 119.336C134.4 119.336 136.44 117.872 136.44 115.64C136.44 112.616 133.968 112.256 131.784 111.728Z" fill="#F5F4EF"/>
</svg>
