<svg width="32" height="32" viewBox="0 0 32 32" fill="none" xmlns="http://www.w3.org/2000/svg">
<path d="M12 15C17.5228 15 22 12.9853 22 10.5C22 8.01472 17.5228 6 12 6C6.47715 6 2 8.01472 2 10.5C2 12.9853 6.47715 15 12 15Z" stroke="#EDBF6A" stroke-width="2" stroke-linecap="round" stroke-linejoin="round"/>
<path d="M2 10.5V15.5C2 17.9875 6.475 20 12 20C17.525 20 22 17.9875 22 15.5V10.5" stroke="#EDBF6A" stroke-width="2" stroke-linecap="round" stroke-linejoin="round"/>
<path d="M8 14.625V19.625" stroke="#EDBF6A" stroke-width="2" stroke-linecap="round" stroke-linejoin="round"/>
<path d="M22 12.0875C26.5625 12.5125 30 14.325 30 16.5C30 18.9875 25.525 21 20 21C17.55 21 15.3 20.6 13.5625 19.95" stroke="#EDBF6A" stroke-width="2" stroke-linecap="round" stroke-linejoin="round"/>
<path d="M10 19.9125V21.5C10 23.9875 14.475 26 20 26C25.525 26 30 23.9875 30 21.5V16.5" stroke="#EDBF6A" stroke-width="2" stroke-linecap="round" stroke-linejoin="round"/>
<path d="M24 20.625V25.625" stroke="#EDBF6A" stroke-width="2" stroke-linecap="round" stroke-linejoin="round"/>
<path d="M16 14.625V25.625" stroke="#EDBF6A" stroke-width="2" stroke-linecap="round" stroke-linejoin="round"/>
</svg>
