<svg width="174" height="140" viewBox="0 0 174 140" fill="none" xmlns="http://www.w3.org/2000/svg">
<path d="M87 41V23" stroke="#EDBF6A" stroke-width="2" stroke-linecap="round" stroke-linejoin="round"/>
<path d="M87 31L81 28" stroke="#EDBF6A" stroke-width="2" stroke-linecap="round" stroke-linejoin="round"/>
<path d="M87 28L93 25" stroke="#EDBF6A" stroke-width="2" stroke-linecap="round" stroke-linejoin="round"/>
<path d="M87.5626 34.65C88.48 35.2749 89.5175 35.702 90.609 35.9042C91.7005 36.1064 92.8221 36.0792 93.9025 35.8244C94.9829 35.5695 95.9985 35.0927 96.8846 34.424C97.7707 33.7554 98.508 32.9097 99.0495 31.9407C99.591 30.9717 99.925 29.9006 100.03 28.7955C100.135 27.6905 100.009 26.5756 99.6601 25.5219C99.3109 24.4682 98.7463 23.4986 98.0022 22.6749C97.258 21.8513 96.3506 21.1915 95.3376 20.7375C95.1151 20.6257 94.9384 20.4401 94.8376 20.2125C94.1895 18.6687 93.1 17.3507 91.7057 16.4238C90.3114 15.4969 88.6744 15.0024 87.0001 15.0024C85.3258 15.0024 83.6888 15.4969 82.2944 16.4238C80.9001 17.3507 79.8106 18.6687 79.1626 20.2125C79.0617 20.4401 78.885 20.6257 78.6626 20.7375C77.6496 21.1915 76.7421 21.8513 75.998 22.6749C75.2538 23.4986 74.6892 24.4682 74.3401 25.5219C73.9909 26.5756 73.8649 27.6905 73.97 28.7955C74.0751 29.9006 74.4091 30.9717 74.9506 31.9407C75.4921 32.9097 76.2294 33.7554 77.1155 34.424C78.0016 35.0927 79.0172 35.5695 80.0976 35.8244C81.178 36.0792 82.2996 36.1064 83.3911 35.9042C84.4826 35.702 85.5201 35.2749 86.4376 34.65C86.6047 34.5403 86.8002 34.4819 87.0001 34.4819C87.1999 34.4819 87.3955 34.5403 87.5626 34.65Z" stroke="#EDBF6A" stroke-width="2" stroke-linecap="round" stroke-linejoin="round"/>
<path d="M17.9243 73.16V67.76H27.8843V65.84H15.7643V83H28.1723V81.08H17.9243V75.08H26.7323V73.16H17.9243ZM36.4059 70.424C34.3179 70.424 33.0219 71.36 32.3739 72.224H32.3259V70.76H30.4059V83H32.3259V75.368C32.3259 73.472 33.7659 72.104 35.9259 72.104C37.8459 72.104 38.5899 73.352 38.5899 74.936V83H40.5099V74.456C40.5099 71.648 38.6379 70.424 36.4059 70.424ZM41.5793 70.76L45.9713 83H48.1553L52.5473 70.76H50.4593L47.0753 81.08H47.0513L43.6673 70.76H41.5793ZM55.1138 68.384C55.6658 68.384 56.3138 67.976 56.3138 67.232C56.3138 66.488 55.6658 66.08 55.1138 66.08C54.5858 66.08 53.9138 66.488 53.9138 67.232C53.9138 67.976 54.5858 68.384 55.1138 68.384ZM54.1538 70.76V83H56.0738V70.76H54.1538ZM64.3048 70.424C62.5528 70.424 61.5688 71.576 60.9208 73.184H60.8728V70.76H58.9528V83H60.8728V76.472C60.8728 73.856 62.7208 71.984 65.3848 72.416H65.4328V70.496C65.0968 70.448 64.7608 70.424 64.3048 70.424ZM72.0146 83.336C68.2706 83.336 66.0146 80.696 66.0146 76.88C66.0146 73.064 68.2706 70.424 72.0146 70.424C75.7346 70.424 77.9906 73.064 77.9906 76.88C77.9906 80.696 75.7346 83.336 72.0146 83.336ZM72.0146 81.656C74.7506 81.656 76.0706 79.496 76.0706 76.88C76.0706 74.264 74.7506 72.104 72.0146 72.104C69.2546 72.104 67.9346 74.264 67.9346 76.88C67.9346 79.496 69.2546 81.656 72.0146 81.656ZM85.9294 70.424C83.8414 70.424 82.5454 71.36 81.8974 72.224H81.8494V70.76H79.9294V83H81.8494V75.368C81.8494 73.472 83.2894 72.104 85.4494 72.104C87.3694 72.104 88.1134 73.352 88.1134 74.936V83H90.0334V74.456C90.0334 71.648 88.1614 70.424 85.9294 70.424ZM105.401 70.424C103.553 70.424 102.281 71.384 101.441 72.536H101.393C100.889 71.168 99.8811 70.424 98.1291 70.424C96.2811 70.424 95.2251 71.36 94.5771 72.224H94.5291V70.76H92.6091V83H94.5291V75.368C94.5291 73.472 95.7291 72.104 97.6491 72.104C99.5691 72.104 99.8811 73.352 99.8811 74.936V83H101.801V75.368C101.801 73.472 103.001 72.104 104.921 72.104C106.841 72.104 107.153 73.352 107.153 74.936V83H109.073V74.456C109.073 71.888 107.873 70.424 105.401 70.424ZM116.848 81.656C114.184 81.656 112.864 79.592 112.864 77.384H122.536C122.536 73.04 120.664 70.424 116.824 70.424C113.248 70.424 110.944 72.8 110.944 76.88C110.944 80.72 113.2 83.336 116.92 83.336C119.968 83.336 121.72 81.512 122.344 79.232H120.424C120.208 80.072 119.296 81.656 116.848 81.656ZM116.824 72.104C119.128 72.104 120.616 73.736 120.616 75.704H112.864C112.864 73.736 114.52 72.104 116.824 72.104ZM130.437 70.424C128.349 70.424 127.053 71.36 126.405 72.224H126.357V70.76H124.437V83H126.357V75.368C126.357 73.472 127.797 72.104 129.957 72.104C131.877 72.104 132.621 73.352 132.621 74.936V83H134.541V74.456C134.541 71.648 132.669 70.424 130.437 70.424ZM142.211 72.44V70.76H139.811V66.68H137.891V70.76H136.091V72.44H137.891V80C137.891 82.496 139.139 83.144 140.771 83.144C141.275 83.144 141.779 83.096 142.211 83V81.32C140.579 81.44 139.811 81.2 139.811 79.808V72.44H142.211ZM151.706 73.88C151.706 75.104 150.77 75.368 148.706 75.752C145.538 76.352 143.474 77.072 143.474 79.856C143.474 81.92 145.034 83.336 147.506 83.336C149.522 83.336 150.89 82.616 151.658 81.464H151.706C152.042 82.808 152.738 83.12 153.89 83.12C154.25 83.12 154.514 83.096 155.018 82.928V81.584C153.794 81.728 153.626 81.2 153.626 80.24V74.288C153.626 71.336 151.538 70.424 149.21 70.424C145.658 70.424 144.194 72.2 144.074 74.552H145.994C146.114 72.776 146.882 72.104 149.21 72.104C151.178 72.104 151.706 72.92 151.706 73.88ZM147.698 81.656C146.114 81.656 145.394 80.96 145.394 79.76C145.394 78.296 146.498 77.696 148.874 77.192C150.17 76.928 151.346 76.592 151.706 76.232V78.272C151.706 80.624 149.978 81.656 147.698 81.656ZM156.525 65.84V83H158.445V65.84H156.525ZM62.0455 108.992C59.5255 108.368 57.6775 108.056 57.6775 105.776C57.6775 104.36 58.9735 103.424 61.3975 103.424C64.1095 103.424 65.4055 104.624 65.7175 106.928H67.8775C67.5895 103.376 65.0455 101.504 61.3975 101.504C57.6055 101.504 55.5175 103.304 55.5175 106.016C55.5175 109.352 58.5895 110.24 61.1575 110.84C64.9975 111.728 66.2695 112.16 66.2695 114.512C66.2695 116.048 65.2135 117.416 62.2375 117.416C58.6375 117.416 57.1975 115.592 56.9575 113.24H54.7975C55.0375 117.176 58.1815 119.336 62.2375 119.336C66.5815 119.336 68.4295 117.008 68.4295 114.512C68.4295 110.6 65.9095 109.952 62.0455 108.992ZM78.101 109.88C78.101 111.104 77.165 111.368 75.101 111.752C71.933 112.352 69.869 113.072 69.869 115.856C69.869 117.92 71.429 119.336 73.901 119.336C75.917 119.336 77.285 118.616 78.053 117.464H78.101C78.437 118.808 79.133 119.12 80.285 119.12C80.645 119.12 80.909 119.096 81.413 118.928V117.584C80.189 117.728 80.021 117.2 80.021 116.24V110.288C80.021 107.336 77.933 106.424 75.605 106.424C72.053 106.424 70.589 108.2 70.469 110.552H72.389C72.509 108.776 73.277 108.104 75.605 108.104C77.573 108.104 78.101 108.92 78.101 109.88ZM74.093 117.656C72.509 117.656 71.789 116.96 71.789 115.76C71.789 114.296 72.893 113.696 75.269 113.192C76.565 112.928 77.741 112.592 78.101 112.232V114.272C78.101 116.624 76.373 117.656 74.093 117.656ZM87.8902 103.52V101.84C87.4582 101.744 86.9542 101.696 86.5222 101.696C84.8902 101.696 83.6422 102.344 83.6422 104.84V106.76H81.9382V108.44H83.6422V119H85.5622V108.44H87.8902V106.76H85.5622V105.032C85.5622 103.64 86.2582 103.4 87.8902 103.52ZM94.6178 117.656C91.9538 117.656 90.6338 115.592 90.6338 113.384H100.306C100.306 109.04 98.4338 106.424 94.5938 106.424C91.0178 106.424 88.7138 108.8 88.7138 112.88C88.7138 116.72 90.9698 119.336 94.6898 119.336C97.7378 119.336 99.4898 117.512 100.114 115.232H98.1938C97.9778 116.072 97.0658 117.656 94.6178 117.656ZM94.5938 108.104C96.8978 108.104 98.3858 109.736 98.3858 111.704H90.6338C90.6338 109.736 92.2898 108.104 94.5938 108.104ZM107.3 108.44V106.76H104.9V102.68H102.98V106.76H101.18V108.44H102.98V116C102.98 118.496 104.228 119.144 105.86 119.144C106.364 119.144 106.868 119.096 107.3 119V117.32C105.668 117.44 104.9 117.2 104.9 115.808V108.44H107.3ZM119.676 106.76H117.516L113.988 116.744H113.94L110.196 106.76H108.036L112.668 117.992C113.148 119.192 112.644 120.224 112.14 120.776C111.492 121.472 110.748 121.544 109.692 121.448H109.404V122.888C109.716 122.984 110.268 123.128 111.036 123.128C113.292 123.128 113.916 121.328 114.444 120.008L119.676 106.76Z" fill="#F5F4EF"/>
</svg>
